<svg viewBox="0 0 24 24" xmlns="http://www.w3.org/2000/svg" xmlns:xlink="http://www.w3.org/1999/xlink" width="24.000000" height="24.000000" fill="none">
	<rect id="lucide/instagram" width="24.000000" height="24.000000" x="0.000000" y="0.000000" fill="rgb(255,255,255)" fill-opacity="0" />
	<path id="Vector" d="M17 2C19.7614 2 22 4.23858 22 7L22 17C22 19.7614 19.7614 22 17 22L7 22C4.23858 22 2 19.7614 2 17L2 7C2 4.23858 4.23858 2 7 2L17 2Z" stroke="rgb(45,13,45)" stroke-linecap="round" stroke-linejoin="round" stroke-width="1.5" />
	<path id="Vector" d="M15.5937 13.799C15.2062 14.5458 14.5931 15.1514 13.8416 15.5297C13.0901 15.9079 12.2384 16.0396 11.4077 15.9059C10.5771 15.7723 9.80971 15.3801 9.21479 14.7852C8.61987 14.1902 8.22768 13.4229 8.09402 12.5922C7.96035 11.7615 8.09202 10.9099 8.47028 10.1584C8.84854 9.40685 9.45414 8.79374 10.2009 8.40624C10.9477 8.01874 11.7977 7.87658 12.63 8C13.4789 8.12588 14.2648 8.52146 14.8716 9.1283C15.4785 9.73515 15.8741 10.5211 16 11.37C16.1234 12.2022 15.9812 13.0522 15.5937 13.799Z" fill-rule="nonzero" stroke="rgb(45,13,45)" stroke-linecap="round" stroke-linejoin="round" stroke-width="1.5" />
	<path id="Vector" d="M17.5 6.5L17.51 6.5" stroke="rgb(45,13,45)" stroke-linecap="round" stroke-linejoin="round" stroke-width="1.5" />
</svg>
