<svg viewBox="0 0 182.003 12.0025" xmlns="http://www.w3.org/2000/svg" xmlns:xlink="http://www.w3.org/1999/xlink" width="182.003418" height="12.002502" fill="none" customFrame="#000000">
	<path id="Vector" d="M39.3064 8.49466C45.8448 6.94477 52.7965 7.07331 59.3991 6.61728C76.1119 5.4622 92.7943 5.34895 109.531 5.24061C117.858 5.18735 136.864 3.82967 144.472 7.27041C144.826 7.43079 143.729 7.28204 143.357 7.29796C142.542 7.33346 141.728 7.44426 140.912 7.46936C138.504 7.54403 136.102 7.37447 133.697 7.33775C126.427 7.22634 119.201 7.72155 111.937 8.06434C100.558 8.60056 89.1976 7.9462 77.8155 8.06862C67.3139 8.18186 56.8373 9.14229 46.328 8.9611C40.0342 8.85336 33.6762 9.0927 27.382 9.38775C25.528 9.47467 23.6741 9.67606 21.8208 9.80154C20.3822 9.89887 18.5156 10.0097 18.5454 9.99926C25.1126 7.58688 32.2538 7.7693 38.9617 6.87988C55.0022 4.75275 71.019 4.55075 87.1036 3.77703C108.575 2.74438 129.87 3.46117 151.334 3.80457C160.633 3.9527 170.62 2.61888 179.866 4.33038C180.544 4.45526 178.508 4.09717 177.826 4.03596C176.358 3.90496 174.892 3.75621 173.427 3.56829C169.002 3.00085 164.588 2.82334 160.151 2.60175C146.986 1.94311 133.681 1.67315 120.518 2.58705C106.633 3.55054 92.5814 2.9531 78.6767 2.958C62.9007 2.96412 47.0882 4.35609 31.3318 5.42241C21.5679 6.0835 11.6734 5.82642 2.0022 8.00313" fill-rule="nonzero" stroke="rgb(230,102,229)" stroke-linecap="round" stroke-linejoin="round" stroke-width="4" />
</svg>
