<svg viewBox="0 0 257.758 167.007" xmlns="http://www.w3.org/2000/svg" xmlns:xlink="http://www.w3.org/1999/xlink" width="257.757812" height="167.007324" fill="none" customFrame="#000000">
	<path id="Vector" d="M181.216 98.5498C153.295 102.644 125.467 108.601 97.1746 109.267C80.9114 109.65 64.262 107.876 48.3696 104.419C39.7306 102.54 31.0494 99.4648 23.4411 94.9085C18.581 91.9973 13.9794 88.3073 10.1177 84.1585C-14.118 58.1223 14.651 31.3358 38.0824 19.1233C84.0996 -4.86322 138.386 -5.28335 186.792 12.2742C207.436 19.7608 239.677 38.9185 237.384 65.311C235.411 88.0048 201.244 99.0673 183.554 103.372C139.769 114.026 85.6803 116.106 42.9316 100.742C23.8745 93.8923 1.47294 79.3685 0.0654985 56.791C-1.56413 30.6404 27.5664 18.1824 48.2809 12.072C97.3825 -2.41135 160.527 2.04103 201.072 36.117" fill-rule="nonzero" stroke="rgb(230,102,229)" stroke-linecap="round" stroke-linejoin="round" stroke-width="4" transform="matrix(0.969022,-0.246974,0.246974,0.969022,0,58.6562)" />
</svg>
