<svg viewBox="0 0 573 272" xmlns="http://www.w3.org/2000/svg" xmlns:xlink="http://www.w3.org/1999/xlink" width="573.000488" height="272.000244" fill="none" customFrame="#000000">
	<path id="Vector" d="M436.156 238.206C369.263 248.018 302.594 262.297 234.81 263.894C195.847 264.811 155.958 260.559 117.884 252.272C97.1863 247.769 76.3878 240.399 58.1601 229.479C46.5162 222.501 35.4917 213.657 26.24 203.713C-31.8237 141.309 37.1007 77.1064 93.2374 47.8353C203.485 -9.65601 333.545 -10.663 449.516 31.4192C498.974 49.3632 576.217 95.2809 570.722 158.539C565.996 212.932 484.138 239.446 441.757 249.765C336.857 275.3 207.272 280.285 104.855 243.461C59.1983 227.043 5.52885 192.232 2.15692 138.118C-1.74732 75.4397 68.0433 45.5801 117.671 30.9347C235.308 -3.77931 386.59 6.89222 483.728 88.5662" fill-rule="nonzero" stroke="rgb(230,102,229)" stroke-linecap="round" stroke-linejoin="round" stroke-width="4" />
</svg>
