<svg viewBox="0 0 250 250" xmlns="http://www.w3.org/2000/svg"
   xmlns:xlink="http://www.w3.org/1999/xlink" width="250.000000" height="250.000000" fill="none">
   <rect id="Frame" width="250.000000" height="250.000000" x="0.000000" y="0.000000"
      fill="rgb(255,255,255)" fill-opacity="0" />
   <path id="Vector"
      d="M187.466 167.642C159.545 171.736 131.717 177.694 103.425 178.36C87.1614 178.742 70.512 176.969 54.6196 173.511C45.9806 171.632 37.2994 168.557 29.6911 164.001C24.831 161.09 20.2294 157.4 16.3677 153.251C-7.86795 127.215 20.901 100.428 44.3324 88.216C90.3496 64.2295 144.636 63.8094 193.042 81.3669C213.686 88.8535 245.927 108.011 243.634 134.404C241.661 157.097 207.494 168.16 189.804 172.465C146.019 183.119 91.9303 185.199 49.1816 169.835C30.1245 162.985 7.72294 148.461 6.3155 125.884C4.68587 99.7331 33.8164 87.2751 54.5309 81.1647C103.632 66.6814 166.777 71.1337 207.322 105.21"
      fill-rule="nonzero" stroke="rgb(230,102,229)" stroke-linecap="round" stroke-linejoin="round"
      stroke-width="4" />
</svg>