<svg viewBox="0 0 24 24" xmlns="http://www.w3.org/2000/svg" xmlns:xlink="http://www.w3.org/1999/xlink" width="24.000000" height="24.000000" fill="none">
	<rect id="lucide/linkedin" width="24.000000" height="24.000000" x="0.000000" y="0.000000" fill="rgb(255,255,255)" fill-opacity="0" />
	<path id="Vector" d="M20.2426 9.75736C21.3679 10.8826 22 12.4087 22 14L22 21L18 21L18 14C18 13.4696 17.7893 12.9609 17.4142 12.5858C17.0391 12.2107 16.5304 12 16 12C15.4696 12 14.9609 12.2107 14.5858 12.5858C14.2107 12.9609 14 13.4696 14 14L14 21L10 21L10 14C10 12.4087 10.6321 10.8826 11.7574 9.75736C12.8826 8.63214 14.4087 8 16 8C17.5913 8 19.1174 8.63214 20.2426 9.75736Z" fill-rule="nonzero" stroke="rgb(45,13,45)" stroke-linecap="round" stroke-linejoin="round" stroke-width="1.5" />
	<path id="Vector" d="M6 9L6 21L2 21L2 9L6 9Z" stroke="rgb(45,13,45)" stroke-linecap="round" stroke-linejoin="round" stroke-width="1.5" />
	<path id="Vector" d="M4 6C2.89543 6 2 5.10457 2 4C2 2.89543 2.89543 2 4 2C5.10457 2 6 2.89543 6 4C6 5.10457 5.10457 6 4 6Z" stroke="rgb(45,13,45)" stroke-linecap="round" stroke-linejoin="round" stroke-width="1.5" />
</svg>
