<svg viewBox="0 0 20 20" xmlns="http://www.w3.org/2000/svg" xmlns:xlink="http://www.w3.org/1999/xlink" width="20.000000" height="20.000000" fill="none">
	<rect id="lucide/messages-square" width="20.000000" height="20.000000" x="0.000000" y="0.000000" fill="rgb(255,255,255)" fill-opacity="0" />
	<path id="Vector" d="M12.8455 9.51186C12.5329 9.82443 12.109 10 11.667 10L5.69033 10C5.24833 10.0001 4.82448 10.1758 4.51199 10.4884L2.67699 12.3234C2.59425 12.4061 2.48883 12.4624 2.37407 12.4852C2.2593 12.5081 2.14035 12.4964 2.03225 12.4516C1.92414 12.4068 1.83174 12.331 1.76673 12.2337C1.70172 12.1364 1.66701 12.022 1.66699 11.905L1.66699 3.33335C1.66699 2.89133 1.84259 2.4674 2.15515 2.15484C2.46771 1.84228 2.89163 1.66669 3.33366 1.66669L11.667 1.66669C12.109 1.66669 12.5329 1.84228 12.8455 2.15484C13.1581 2.4674 13.3337 2.89133 13.3337 3.33335L13.3337 8.33335C13.3337 8.77538 13.1581 9.1993 12.8455 9.51186Z" fill-rule="nonzero" stroke="rgb(45,13,45)" stroke-linecap="round" stroke-linejoin="round" stroke-width="1.5" />
	<path id="Vector" d="M16.667 7.5C17.109 7.5 17.5329 7.6756 17.8455 7.98816C18.1581 8.30072 18.3337 8.72464 18.3337 9.16667L18.3337 17.7383C18.3336 17.8553 18.2989 17.9697 18.2339 18.067C18.1689 18.1643 18.0765 18.2401 17.9684 18.2849C17.8603 18.3297 17.7413 18.3414 17.6266 18.3186C17.5118 18.2957 17.4064 18.2394 17.3237 18.1567L15.4887 16.3217C15.1762 16.0091 14.7523 15.8334 14.3103 15.8333L8.33366 15.8333C7.89163 15.8333 7.46771 15.6577 7.15515 15.3452C6.84259 15.0326 6.66699 14.6087 6.66699 14.1667L6.66699 13.3333" fill-rule="nonzero" stroke="rgb(45,13,45)" stroke-linecap="round" stroke-linejoin="round" stroke-width="1.5" />
</svg>
