<svg viewBox="0 0 20 20" xmlns="http://www.w3.org/2000/svg"
    xmlns:xlink="http://www.w3.org/1999/xlink" width="20.000000" height="20.000000" fill="none">
    <rect id="lucide/mic" width="20.000000" height="20.000000" x="0.000000" y="0.000000"
        fill="rgb(255,255,255)" fill-opacity="0" />
    <path id="Vector" d="M0 0L2.5 0" stroke="rgb(45,13,45)" stroke-linecap="round"
        stroke-linejoin="round" stroke-width="1.5" transform="matrix(0,1,-1,0,10,15.8335)" />
    <path id="Vector"
        d="M15.8334 8.3335L15.8334 10.0002C15.8334 11.5473 15.2188 13.031 14.1249 14.125C13.0309 15.2189 11.5472 15.8335 10.0001 15.8335C8.45298 15.8335 6.96925 15.2189 5.87529 14.125C4.78133 13.031 4.16675 11.5473 4.16675 10.0002L4.16675 8.3335"
        fill-rule="nonzero" stroke="rgb(45,13,45)" stroke-linecap="round" stroke-linejoin="round"
        stroke-width="1.5" />
    <path id="Vector"
        d="M12.5 4.1665L12.5 9.99984C12.5 11.3805 11.3807 12.4998 10 12.4998C8.61929 12.4998 7.5 11.3805 7.5 9.99984L7.5 4.1665C7.5 2.78579 8.61929 1.6665 10 1.6665C11.3807 1.6665 12.5 2.78579 12.5 4.1665Z"
        stroke="rgb(45,13,45)" stroke-linecap="round" stroke-linejoin="round" stroke-width="1.5" />
</svg>