<svg viewBox="0 0 20 20" xmlns="http://www.w3.org/2000/svg" xmlns:xlink="http://www.w3.org/1999/xlink" width="20.000000" height="20.000000" fill="none">
	<rect id="lucide/newspaper" width="20.000000" height="20.000000" x="0.000000" y="0.000000" fill="rgb(255,255,255)" fill-opacity="0" />
	<path id="Vector" d="M12.4997 15L8.33301 15" stroke="rgb(45,13,45)" stroke-linecap="round" stroke-linejoin="round" stroke-width="1.5" />
	<path id="Vector" d="M14.9997 11.6667L8.33301 11.6667" stroke="rgb(45,13,45)" stroke-linecap="round" stroke-linejoin="round" stroke-width="1.5" />
	<path id="Vector" d="M5.00033 7.50002L3.33366 7.50002C2.89163 7.50002 2.46771 7.67562 2.15515 7.98818C1.84259 8.30074 1.66699 8.72466 1.66699 9.16669L1.66699 16.6667C1.66699 17.1087 1.84259 17.5326 2.15515 17.8452C2.46771 18.1578 2.89163 18.3334 3.33366 18.3334L16.667 18.3334C17.109 18.3334 17.5329 18.1578 17.8455 17.8452C18.1581 17.5326 18.3337 17.1087 18.3337 16.6667L18.3337 3.33335C18.3337 2.89133 18.1581 2.4674 17.8455 2.15484C17.5329 1.84228 17.109 1.66669 16.667 1.66669L6.66699 1.66669C6.22496 1.66669 5.80104 1.84228 5.48848 2.15484C5.17592 2.4674 5.00033 2.89133 5.00033 3.33335L5.00033 16.6667C5.00033 17.1087 4.82473 17.5326 4.51217 17.8452C4.19961 18.1578 3.77569 18.3334 3.33366 18.3334" fill-rule="nonzero" stroke="rgb(45,13,45)" stroke-linecap="round" stroke-linejoin="round" stroke-width="1.5" />
	<path id="Vector" d="M14.1663 5C14.6266 5 14.9997 5.3731 14.9997 5.83333L14.9997 7.5C14.9997 7.96024 14.6266 8.33333 14.1663 8.33333L9.16634 8.33333C8.7061 8.33333 8.33301 7.96024 8.33301 7.5L8.33301 5.83333C8.33301 5.3731 8.7061 5 9.16634 5L14.1663 5Z" stroke="rgb(45,13,45)" stroke-linecap="round" stroke-linejoin="round" stroke-width="1.5" />
</svg>
