<svg viewBox="0 0 20 20" xmlns="http://www.w3.org/2000/svg" xmlns:xlink="http://www.w3.org/1999/xlink" width="20.000000" height="20.000000" fill="none">
   <rect id="lucide/spotify" width="20.000000" height="20.000000" x="0.000000" y="0.000000" fill="rgb(255,255,255)" fill-opacity="0" />
   <g id="spotify">
      <path id="Subtract"
            d="M10 19.375C4.82233 19.375 0.625 15.1777 0.625 10C0.625 4.82233 4.82233 0.625 10 0.625C15.1777 0.625 19.375 4.82233 19.375 10C19.375 15.1777 15.1777 19.375 10 19.375ZM10.6815 5.46733C8.81708 5.29462 6.83529 5.55867 5.07892 6.33737C4.65817 6.52387 4.46829 7.01621 4.65483 7.43692C4.84137 7.85767 5.33367 8.04754 5.75442 7.861C7.22187 7.21037 8.91392 6.97738 10.5278 7.12687C12.1518 7.27733 13.7181 7.81733 14.9086 8.73304C15.2734 9.01362 15.7966 8.94537 16.0772 8.58058C16.3578 8.21579 16.2895 7.69258 15.9247 7.41196C14.4361 6.26692 12.5522 5.64058 10.6815 5.46733ZM5.61096 9.62425C7.05921 8.9385 8.70579 8.70533 10.249 8.85087C11.7582 8.99321 13.2843 9.50971 14.491 10.4606C14.8525 10.7455 14.9146 11.2695 14.6298 11.631C14.3449 11.9924 13.8209 12.0545 13.4594 11.7697C12.5523 11.0548 11.3487 10.6287 10.0925 10.5102C8.81175 10.3894 7.47071 10.5877 6.32425 11.1306C5.90829 11.3275 5.41142 11.15 5.21446 10.7341C5.0175 10.3181 5.195 9.82125 5.61096 9.62425ZM9.81771 12.2533C8.67858 12.1425 7.46287 12.3125 6.38183 12.8197C5.96521 13.0153 5.78592 13.5115 5.98142 13.9281C6.17696 14.3448 6.67321 14.524 7.08983 14.3285C7.87175 13.9616 8.78275 13.8271 9.65633 13.9121C10.537 13.9977 11.3717 14.3057 11.994 14.8124C12.351 15.103 12.8758 15.0493 13.1664 14.6924C13.457 14.3355 13.4033 13.8106 13.0464 13.52C12.1242 12.769 10.9613 12.3645 9.81771 12.2533Z"
            fill="rgb(45,13,45)" fill-rule="evenodd" />
   </g>
</svg>