<svg viewBox="0 0 49 67" xmlns="http://www.w3.org/2000/svg" xmlns:xlink="http://www.w3.org/1999/xlink" width="49.000000" height="67.000000" fill="none" customFrame="#000000">
	<path id="Vector" d="M42.0027 34.5505C40.9237 34.6771 39.8444 34.8037 38.7802 35.0071L38.7812 35.0052C38.1696 35.122 37.5522 35.2014 36.935 35.2808C36.0629 35.3931 35.1913 35.5052 34.3381 35.7224C33.014 36.0601 31.71 36.4642 30.5319 37.189C29.7232 37.687 29.1467 38.3833 28.7342 39.2218C28.6964 39.2985 28.6586 39.3753 28.6208 39.452C27.8842 40.9466 27.1447 42.447 26.6997 44.0512C26.4234 45.0487 26.203 46.0614 25.9826 47.0742C25.8177 47.8318 25.6528 48.5893 25.4645 49.3406C25.0664 50.9286 24.7208 52.527 24.4459 54.1387C24.336 54.7828 24.3084 55.444 24.2873 56.0986C24.2187 58.1979 24.157 60.2977 24.0954 62.3973L24.0954 62.3977L24.0954 62.3979C24.0627 63.5124 24.03 64.6268 23.9962 65.7412C23.9952 65.7752 23.9959 65.8108 23.9966 65.8468C24 66.0143 24.0036 66.192 23.8339 66.2771C23.6576 66.3664 23.5108 66.2436 23.3818 66.1356C23.3572 66.115 23.3332 66.0949 23.3098 66.0769C22.6109 65.5429 22.2176 64.8627 22.188 63.9502C22.0811 60.6538 21.9503 57.3573 21.8062 54.0619C21.7001 51.6505 21.2296 49.2923 20.5918 46.9748C20.165 45.4228 19.682 43.8795 19.0366 42.3949C18.3178 40.7415 17.4777 39.1706 16.2825 37.7913C15.4653 36.8493 14.6375 35.9321 13.5912 35.2367C12.1163 34.2567 10.5096 33.7 8.71665 33.7569C6.50378 33.827 4.29465 33.8213 2.08266 33.6515C1.14043 33.5794 0.141837 32.4279 0.0129162 31.7212C-0.0538146 31.3531 0.143712 31.2724 0.47401 31.298C0.650511 31.3119 0.826914 31.326 1.00342 31.3401C1.84752 31.4077 2.69202 31.4755 3.53761 31.5029C3.70789 31.5085 3.87817 31.5143 4.04855 31.5202C5.97486 31.5863 7.90581 31.6525 9.81356 31.2952C12.3272 30.8238 14.5201 29.7319 16.4152 27.9884C17.4633 27.0246 18.1593 25.9223 18.6634 24.6046C19.3479 22.8156 19.9923 21.0265 20.4725 19.1682C20.5853 18.7317 20.6856 18.2923 20.7858 17.8531C20.9291 17.2251 21.0723 16.5977 21.2515 15.9809C21.5457 14.9675 21.7209 13.9339 21.8959 12.9008C21.9827 12.3885 22.0695 11.8763 22.1708 11.3668C22.3463 10.4807 22.3538 9.56449 22.3635 8.37286C22.3647 8.2288 22.366 8.08066 22.3675 7.92812C22.3312 7.12844 22.2615 5.93698 22.0898 4.74933C22.0087 4.18949 21.9841 3.62112 21.9594 3.05259L21.9593 3.05218C21.9491 2.81647 21.9388 2.58072 21.9245 2.34555C21.9093 2.09702 21.9098 1.84791 21.9104 1.5988C21.9112 1.20799 21.9121 0.817139 21.852 0.428418C21.8301 0.28423 21.8233 0.101139 21.9723 0.0309421C22.1021 -0.0307177 22.2739 0.0043859 22.3952 0.0954523C23.1876 0.690233 23.6506 1.45291 23.8015 2.45464C24.0172 3.88909 24.0943 5.33407 24.1713 6.77924C24.2477 8.21165 24.3241 9.64434 24.5355 11.0671C24.6712 11.9767 24.7022 12.9024 24.7332 13.8269L24.7333 13.8272C24.7442 14.1511 24.7551 14.475 24.7704 14.798C24.8744 16.993 25.2669 19.1445 25.7108 21.2903C25.9495 22.4409 26.2845 23.566 26.6988 24.6616C27.1103 25.7516 27.7786 26.7039 28.4965 27.6212C29.0321 28.3062 29.5801 28.9702 30.2331 29.5564C31.5276 30.7175 33.0111 31.4356 34.7429 31.6737C35.7262 31.8094 36.7114 31.8881 37.7023 31.8691C38.5455 31.8526 39.3815 31.9362 40.2175 32.0197C40.7776 32.0757 41.3379 32.1317 41.9002 32.1575C42.5769 32.1879 43.5097 33.3129 43.5183 34.0016C43.5221 34.3032 43.3703 34.3848 43.0973 34.419C42.7328 34.4648 42.3678 34.5077 42.0027 34.5505ZM28.3906 35.5308C29.4512 34.6751 30.6675 34.1135 31.9878 33.7663L31.9886 33.7654C32.3681 33.6658 32.7452 33.5551 33.1065 33.4491L33.1071 33.4489L33.1113 33.4477C33.2574 33.4049 33.4009 33.3627 33.5409 33.3224C27.4635 29.8382 24.3017 24.4472 23.2286 17.6665C23.0677 18.1066 22.9637 18.5489 22.8616 18.9834C22.8461 19.049 22.8308 19.1144 22.8152 19.1796C22.2807 21.4249 21.6868 23.6503 20.7456 25.7648C20.6354 26.0127 20.533 26.2647 20.4305 26.517C20.1082 27.3099 19.7851 28.1047 19.2208 28.7776C18.7674 29.3202 18.2415 29.785 17.7106 30.2508C16.818 31.0354 15.8338 31.6822 14.7789 32.2182C14.1173 32.554 13.4204 32.8177 12.6318 33.0512C14.3779 34.1913 15.7402 35.5887 17.0012 37.1007C18.2118 38.5531 19.2267 40.1201 20.0334 41.8266C20.9947 43.8615 21.7498 45.9703 22.3551 48.1331C22.5082 48.6804 22.6483 49.2323 22.7883 49.784L22.7885 49.7849C22.8517 50.0341 22.915 50.2834 22.9794 50.5321L23.0711 50.5283C23.2274 49.8707 23.3891 49.2143 23.551 48.5579L23.5512 48.5574C23.9135 47.0883 24.2758 45.6192 24.5747 44.1375C25.1045 41.507 26.2091 39.1071 27.3833 36.7288C27.6143 36.2621 27.9829 35.859 28.3906 35.5308ZM47.2097 51.1743C48.0536 51.1022 48.7753 51.9854 48.9586 52.5906L48.9615 52.5897C49.0636 52.9264 48.9729 53.1275 48.5643 53.1977C46.6836 53.5221 45.0168 54.3056 43.6478 55.6376C41.978 57.2606 40.7704 59.1227 40.7284 61.5493C40.7253 61.722 40.7248 61.8953 40.7241 62.069C40.7221 62.6531 40.72 63.239 40.6244 63.808C40.5325 64.3545 40.4608 64.9026 40.389 65.4505C40.3347 65.8649 40.2805 66.2793 40.2177 66.6926C40.17 67.0094 39.9732 67.0626 39.6735 66.9373C39.0435 66.6737 38.5107 65.7554 38.5651 64.9671C38.7388 62.6876 38.714 60.41 38.4592 58.139C38.3141 56.8451 37.9465 55.628 37.0749 54.5893C36.5797 53.9981 35.9179 53.8105 35.2503 53.6214C35.1519 53.5935 35.0535 53.5656 34.9555 53.5363C34.4648 53.3903 33.9636 53.3704 33.4424 53.4197C32.2825 53.5288 31.6514 52.8448 31.2791 51.9208C31.1121 51.5073 31.2419 51.3745 31.6944 51.3584L31.761 51.356L31.8744 51.352L31.8747 51.352C32.4583 51.3318 33.0429 51.3115 33.6228 51.253C34.3122 51.1823 34.8828 50.8268 35.4501 50.4734C35.5521 50.4098 35.654 50.3462 35.7565 50.2845C37.45 49.2638 38.3561 47.7385 38.7962 45.8384C39.1771 44.1954 39.3451 42.5467 39.367 40.8725C39.3677 40.8139 39.3677 40.7552 39.3676 40.6965C39.3674 40.5248 39.3671 40.3526 39.3871 40.1837C39.432 39.8053 39.6086 39.7198 39.9103 39.9371C40.6272 40.455 41.0998 41.1152 41.0292 42.0449C40.9413 43.2079 40.9059 44.3718 40.9479 45.5367C40.9919 46.7548 41.2735 47.9292 41.7747 49.0362C42.2797 50.1517 43.2936 50.6127 44.4201 50.8727C45.3366 51.0851 46.2636 51.2559 47.2097 51.1743ZM39.9732 56.9182C40.5623 55.6906 41.4014 54.6614 42.4096 53.746L42.4105 53.746C42.7192 53.4658 43.055 53.2219 43.3979 52.9727C43.6576 52.7842 43.9214 52.5925 44.1805 52.38C42.3227 51.4988 41.1399 50.0427 40.234 48.1692C40.1876 48.3045 40.1491 48.425 40.114 48.535L40.1138 48.5353C40.0469 48.7449 39.9921 48.9162 39.9189 49.0798C39.3041 50.4553 38.4114 51.5869 37.0576 52.3259C36.5029 52.6285 36.5182 52.6436 36.9617 53.0834L36.966 53.0877C38.0696 54.1815 38.9384 55.4288 39.4884 56.8878C39.5009 56.9209 39.5083 56.9615 39.516 57.0037C39.5387 57.1283 39.5638 57.2658 39.7307 57.2588C39.8529 57.253 39.8947 57.133 39.9338 57.0203C39.9463 56.9841 39.9586 56.9488 39.9732 56.9182ZM34.6905 14.2525C35.2928 14.6499 35.9086 15.0294 36.5301 15.3975C37.0369 15.6987 37.5497 15.9903 38.0909 16.2981C38.3286 16.4333 38.5718 16.5716 38.8222 16.7151C38.5888 16.8609 38.3615 17.0044 38.1382 17.1455L38.1377 17.1459C37.5824 17.4965 37.0516 17.8319 36.5091 18.1484C36.2847 18.279 36.0873 18.4399 35.8902 18.6007C35.7838 18.6874 35.6773 18.7743 35.5668 18.8561C35.3769 18.9965 35.2805 19.2783 35.4256 19.4727C35.563 19.6572 35.7697 19.5116 35.9177 19.4075C35.928 19.4002 35.938 19.3932 35.9477 19.3864C36.259 19.1721 36.5961 19.0052 36.9335 18.8383C37.2428 18.6853 37.5525 18.532 37.8428 18.3419C38.2067 18.1036 38.5983 17.9072 38.9981 17.7067C39.1774 17.6168 39.3584 17.5261 39.5392 17.4303C39.5592 17.7144 39.5789 17.9953 39.5983 18.2742L39.5988 18.2808L39.599 18.283C39.6528 19.0524 39.7055 19.8049 39.7607 20.557C39.7875 20.9156 39.8198 21.2741 39.8619 21.6308C39.8867 21.8395 40.006 22.0549 40.2036 22.0596C40.4183 22.0641 40.4003 21.8882 40.3853 21.7421C40.3814 21.7043 40.3778 21.6686 40.3784 21.6384C40.408 20.4574 40.4223 19.2763 40.428 18.0944C40.43 17.7794 40.4558 17.6334 40.83 17.8269C41.8057 18.3324 42.7851 18.8314 43.8095 19.2441C44.1007 19.3618 44.1761 19.2441 44.2591 19.0743C44.4735 18.6344 44.1406 18.4202 43.8572 18.238C43.8466 18.2311 43.8361 18.2244 43.8257 18.2177C42.9999 17.6827 42.1569 17.1724 41.3111 16.6696C41.0553 16.5178 41.0524 16.4514 41.3053 16.2825C42.1665 15.7077 43.0466 15.1708 43.9822 14.723C44.344 14.5494 44.6571 14.3104 44.8061 13.9167C44.8157 13.8914 44.826 13.8657 44.8366 13.8396C44.9144 13.6469 44.9997 13.4355 44.8147 13.2793C44.6752 13.1619 44.5224 13.2554 44.3804 13.3424C44.3446 13.3643 44.3095 13.3859 44.2753 13.4035C43.124 13.9974 42.0022 14.6395 40.9482 15.3956C40.9208 15.4153 40.8929 15.4397 40.8642 15.4647C40.7623 15.5534 40.6512 15.6502 40.5215 15.5777C40.4077 15.5143 40.4206 15.3867 40.4332 15.2619C40.4379 15.215 40.4425 15.1686 40.4405 15.1262L40.4392 15.1037C40.3747 13.915 40.3103 12.7272 40.259 11.5385C40.2495 11.3175 40.1951 11.1155 40.0824 10.9361C40.0686 10.9142 40.0546 10.8912 40.0403 10.8678C39.9123 10.6585 39.7609 10.4107 39.5067 10.479C39.3014 10.5341 39.3281 10.7567 39.3518 10.9538C39.358 11.0041 39.3638 11.0527 39.3655 11.0965C39.419 12.4729 39.4867 13.8484 39.5554 15.2238C39.5707 15.5341 39.5192 15.609 39.2118 15.4222C38.5511 15.02 37.885 14.6269 37.2191 14.2337C36.614 13.8763 36.0087 13.519 35.4074 13.155C35.1163 12.9785 34.8891 12.8837 34.6571 13.2214C34.3763 13.6302 34.3658 14.039 34.6905 14.2535L34.6905 14.2525ZM11.9272 55.0977C12.1156 55.1949 12.3038 55.2922 12.4898 55.3928L12.4898 55.3919C12.5163 55.4061 12.5446 55.4197 12.5734 55.4335C12.7426 55.515 12.9249 55.6026 12.783 55.8433C12.634 56.0966 12.3219 56.1973 12.0889 56.0549C11.5883 55.7499 11.0581 55.5004 10.528 55.251C9.84328 54.9289 9.15889 54.6069 8.53847 54.1653C8.28172 53.9821 8.10314 53.9518 8.12219 54.3797C8.1753 55.5738 8.20916 56.7688 8.24292 57.9638L8.24736 58.1181C8.25546 58.4244 8.24766 58.7321 8.23986 59.0395C8.23848 59.0929 8.2371 59.1463 8.23591 59.1995C8.23572 59.205 8.23572 59.2106 8.23562 59.2162C8.23424 59.3066 8.23256 59.4111 8.11844 59.4424C8.01055 59.4718 7.93227 59.4016 7.85971 59.3314C7.63346 59.1123 7.56179 58.84 7.53317 58.5336C7.5002 58.1769 7.46268 57.8205 7.42507 57.4641C7.32883 56.5515 7.23268 55.6388 7.21343 54.7193C7.21087 54.6228 7.19023 54.5272 7.16595 54.4152C7.15371 54.3587 7.14058 54.2979 7.12844 54.2307C6.53349 54.5228 6.00132 54.889 5.47369 55.2521C5.22315 55.4245 4.9736 55.5962 4.71892 55.7589L4.68457 55.7809C4.28083 56.0391 3.87788 56.2969 3.44432 56.5027C3.43287 56.5081 3.42122 56.514 3.40958 56.5199C3.31817 56.5661 3.22073 56.6152 3.12933 56.5159C3.05677 56.4372 3.05963 56.3291 3.09784 56.2371C3.23525 55.9059 3.37947 55.6176 3.73741 55.4108C4.54459 54.9454 5.33075 54.4425 6.11652 53.9399C6.35412 53.7879 6.59163 53.636 6.82963 53.4851C7.0549 53.3419 7.00623 53.2536 6.78185 53.1143C5.35849 52.2311 3.8988 51.4133 2.42569 50.6174C2.39312 50.5999 2.35521 50.5854 2.31671 50.5707C2.195 50.5242 2.06706 50.4752 2.08009 50.3197C2.09924 50.1005 2.30634 50.0018 2.48966 49.9336C2.99991 49.7443 3.40918 49.9871 3.81717 50.2293C3.84885 50.248 3.88044 50.2669 3.91213 50.2854C4.10837 50.4004 4.30462 50.5154 4.50086 50.6304C5.26511 51.0784 6.02975 51.5266 6.79627 51.9711C7.13387 52.1673 7.11975 51.9645 7.10643 51.7748C7.10445 51.7461 7.10248 51.7179 7.10169 51.6913C7.08816 51.2521 7.07415 50.8127 7.06013 50.3735C7.02291 49.2058 6.9857 48.0378 6.95658 46.8695C6.95539 46.8172 6.94611 46.7593 6.93654 46.6999C6.90742 46.518 6.87622 46.3241 7.07207 46.2481C7.24897 46.1795 7.39289 46.3298 7.52537 46.4682C7.56308 46.5077 7.5999 46.5461 7.63632 46.5783C7.9533 46.8591 8.01243 47.2575 8.022 47.655C8.02802 47.9093 8.03424 48.1637 8.04046 48.418C8.07086 49.6566 8.10127 50.8946 8.106 52.1334C8.10887 52.5972 8.24253 52.5725 8.56809 52.3762C8.97943 52.1274 9.38268 51.8653 9.78602 51.6033C10.4543 51.1692 11.1228 50.7349 11.8283 50.3605C11.8562 50.3456 11.8828 50.3214 11.9095 50.2972C11.9735 50.2391 12.0379 50.1808 12.1194 50.2504C12.2455 50.3585 12.2093 50.5283 12.1367 50.6611C12.0183 50.8793 11.8416 51.0425 11.6306 51.1828C10.9209 51.6543 10.2158 52.1326 9.49877 52.6189C9.24063 52.794 8.98091 52.9702 8.71892 53.1474C9.13668 53.5091 9.59965 53.7733 10.0573 54.0345C10.2815 54.1624 10.5043 54.2895 10.7199 54.4271C11.1071 54.674 11.5173 54.8859 11.9272 55.0977Z" fill="rgb(45,13,45)" fill-rule="evenodd" />
</svg>
