<svg viewBox="0 0 24 24" xmlns="http://www.w3.org/2000/svg"
   xmlns:xlink="http://www.w3.org/1999/xlink" width="24.000000" height="24.000000" fill="none">
   <rect id="lucide/Youtube" width="24.000000" height="24.000000" x="0.000000" y="0.000000"
      fill="rgb(255,255,255)" fill-opacity="0" />
   <path id="Vector"
      d="M2.50001 7C2.5918 6.66521 2.76915 6.36007 3.01461 6.11461C3.26008 5.86914 3.56522 5.69179 3.90001 5.6C9.26346 4.71146 14.7366 4.71146 20.1 5.6C20.4348 5.69179 20.7399 5.86914 20.9854 6.11461C21.2309 6.36007 21.4082 6.66521 21.5 7C22.1986 10.2967 22.1986 13.7033 21.5 17C21.4082 17.3348 21.2309 17.6399 20.9854 17.8854C20.7399 18.1309 20.4348 18.3082 20.1 18.4C14.7366 19.2887 9.26344 19.2887 3.90001 18.4C3.56522 18.3082 3.26008 18.1309 3.01461 17.8854C2.76915 17.6399 2.5918 17.3348 2.50001 17C1.80143 13.7033 1.80143 10.2967 2.50001 7Z"
      fill-rule="nonzero" stroke="rgb(45,13,45)" stroke-linecap="round" stroke-linejoin="round"
      stroke-width="1.5" />
   <path id="Vector" d="M15 12L10 9L10 15L15 12Z" fill-rule="nonzero" stroke="rgb(45,13,45)"
      stroke-linecap="round" stroke-linejoin="round" stroke-width="1.5" />
</svg>