<svg viewBox="0 0 107 107" xmlns="http://www.w3.org/2000/svg" xmlns:xlink="http://www.w3.org/1999/xlink" width="107.000000" height="107.000000" fill="none">
	<rect id="Frame" width="107.000000" height="107.000000" x="0.000000" y="0.000000" fill="rgb(255,255,255)" fill-opacity="0" />
	<path id="Vector" d="M17.7416 59.5641C20.1355 65.0247 19.9165 71.8846 16.05 77.2617C17.6362 77.2662 19.1048 76.6632 20.7121 76.7847C25.9165 77.1776 29.7639 79.1235 33.1925 82.4519C29.1903 73.4615 29.9979 68.2149 60.1089 46.2878C27.7662 67.3926 26.1077 67.1278 17.7416 59.5641Z" fill-rule="nonzero" stroke="rgb(230,102,229)" stroke-linecap="round" stroke-linejoin="round" stroke-width="4" />
	<path id="Vector" d="M54.8916 42.1575C57.5066 40.3498 59.9836 38.3181 62.5241 36.4088M62.524 36.4076C64.41 34.9898 66.7888 33.7286 68.381 31.9753" fill-rule="nonzero" stroke="rgb(230,102,229)" stroke-linecap="round" stroke-linejoin="round" stroke-width="4" />
	<path id="Vector" d="M72.6611 37.9033C78.8421 33.6742 84.9632 29.0277 90.9002 24.457" fill-rule="nonzero" stroke="rgb(230,102,229)" stroke-linecap="round" stroke-linejoin="round" stroke-width="4" />
</svg>
