<svg viewBox="0 0 241.563 153.854" xmlns="http://www.w3.org/2000/svg" xmlns:xlink="http://www.w3.org/1999/xlink" width="241.563477" height="153.854248" fill="none" customFrame="#000000">
	<path id="Vector" d="M225.055 8.77194C224.177 8.77194 223.299 8.77801 222.421 8.77194C214.752 8.70658 207.099 9.20765 199.473 9.88658C191.156 10.6244 182.846 11.5555 174.579 12.7355C168.607 13.5887 162.601 14.2612 156.669 15.348C151.475 16.3009 146.232 16.908 141.048 17.8855C131.473 19.6916 121.861 21.3044 112.289 23.123C107.8 23.9762 103.285 24.7173 98.8164 25.6605C90.0764 27.5069 81.2925 29.1137 72.5368 30.8637C68.2118 31.7291 63.865 32.4984 59.5557 33.4355C50.7193 35.3566 41.8296 36.9759 32.94 38.6262C26.728 39.778 20.4818 40.4944 14.2295 41.2791C11.5922 41.6091 8.97988 41.7894 6.33945 41.7709C3.5527 41.7523 0.417204 38.9716 0.0279901 36.2502C-0.133938 35.123 0.417168 34.8398 1.41045 34.8491C4.76078 34.8802 8.11117 34.7027 11.4055 34.1019C17.4273 33.0059 23.5488 32.4859 29.4929 30.898C32.5039 30.0944 35.6425 29.7802 38.7064 29.1634C43.3457 28.2262 48.0071 27.3544 52.5936 26.1994C56.4078 25.2373 60.2782 24.5894 64.1078 23.7427C72.5086 21.8805 80.9439 20.168 89.3725 18.4369C93.4796 17.593 97.6271 16.9516 101.7 15.9459C106.196 14.8341 110.807 14.3205 115.316 13.3148C120.522 12.1566 125.819 11.518 131.018 10.3973C136.075 9.31051 141.212 8.75015 146.269 7.73194C151.394 6.69801 156.594 6.16265 161.726 5.22551C168.305 4.02337 174.956 3.47551 181.569 2.57872C195.811 0.645151 210.1 -0.323419 224.47 0.0969378C227.552 0.187295 230.666 0.417651 233.484 1.72551C237.56 3.61551 240.481 6.64515 241.461 11.1912C241.844 12.9723 241.137 14.1462 239.543 15.0305C237.731 16.0391 235.77 16.5905 233.78 17.048C227.842 18.4087 221.836 19.3959 215.826 20.3891C205.576 22.083 195.316 23.758 185.106 25.6762C180.237 26.5916 175.326 27.2798 170.472 28.248C161.287 30.0791 152.048 31.6141 142.86 33.4077C134.089 35.1169 125.311 36.8077 116.565 38.6262C113.323 39.2987 110.051 39.9277 106.853 40.8587C109.082 40.983 111.231 40.4134 113.398 40.0741C123.029 38.5605 132.625 36.8169 142.277 35.4562C154.231 33.7687 166.222 32.3612 178.266 31.3462C186.822 30.6237 195.369 30.1662 203.947 30.1691C206.806 30.1691 209.655 30.4027 212.507 30.6612C217.831 31.1409 221.204 34.2076 223.489 38.7287C224.504 40.7341 223.981 42.3312 221.97 43.6391C218.75 45.7377 215.157 47.0394 211.579 48.3594C206.239 50.3273 200.871 52.2205 195.444 53.9423C189.556 55.8077 183.671 57.6759 177.78 59.5284C169.323 62.1905 160.851 64.7966 152.36 67.353C146.851 69.0127 141.34 70.6598 135.866 72.4284C127.786 75.0409 119.722 77.6998 111.689 80.4555C107.224 81.9877 102.78 83.6252 98.4271 85.4469C92.3336 87.9969 86.265 90.628 80.3243 93.5112C78.0603 94.6105 75.5757 95.5198 73.5704 97.5777C74.7971 98.0884 75.9682 97.9516 77.1014 97.9701C88.1646 98.1537 99.2182 97.7709 110.275 97.4469C122.247 97.0952 134.222 96.7309 146.188 97.7209C149.993 98.0355 153.767 98.4744 157.391 99.8259C161.934 101.517 164.864 104.777 166.574 109.158C167.579 111.739 166.885 113.523 164.453 115.313C160.804 118.001 156.737 119.975 152.724 122.045C147.86 124.555 142.975 127.04 138.23 129.764C132.781 132.893 127.528 136.365 122.555 140.214C121.512 141.02 120.506 141.936 119.52 142.839C119.059 143.262 118.255 143.742 118.448 144.318C118.663 144.959 119.591 144.71 120.189 144.704C123.586 144.66 126.986 144.592 130.383 144.458C133.883 144.321 137.38 144.097 140.879 143.928C141.53 143.897 142.169 144.012 142.735 144.374C145.276 145.993 147.082 148.207 147.997 151.077C148.486 152.613 148.022 153.279 146.462 153.285C138.641 153.316 130.838 154.169 123.007 153.727C121.064 153.618 119.118 153.478 117.24 152.989C112.168 151.669 109.089 148.203 107.472 143.396C106.679 141.029 107.675 138.893 109.194 137.128C111.822 134.077 114.874 131.461 118.087 129.036C124.956 123.848 132.351 119.517 139.97 115.541C144.059 113.405 148.134 111.241 152.198 109.058C152.796 108.737 153.499 108.516 154.054 107.588C152.279 107.442 150.654 107.314 149.028 107.171C131.124 105.589 113.224 107.364 95.3229 107.249C90.0886 107.215 84.8546 107.227 79.6236 107.059C76.3418 106.953 73.06 106.467 69.8839 105.664C65.1168 104.456 62.24 101.053 60.5928 96.6034C59.9543 94.8812 60.465 93.2373 61.885 91.9048C64.9425 89.0369 68.6075 87.0848 72.2754 85.2162C77.2478 82.6848 82.3293 80.3527 87.4361 78.0984C90.6307 76.688 93.9496 75.5641 97.2253 74.3466C103.213 72.1202 109.241 70.0091 115.316 68.0134C120.725 66.2352 126.161 64.5662 131.591 62.8569C137.33 61.0509 143.096 59.3416 148.85 57.5855C154.39 55.8948 159.935 54.2259 165.477 52.5412C173.695 50.0441 181.868 47.4005 190.035 44.7477C194.121 43.4212 198.159 41.9423 202.207 40.5037C202.733 40.3169 203.393 40.3044 203.733 39.6941C203.262 39.1273 202.637 39.3451 202.082 39.3577C192.047 39.5912 182.03 40.2484 172.045 41.2198C164.105 41.9919 156.171 42.9137 148.274 44.0469C142.194 44.9187 136.084 45.638 130.041 46.7341C125.214 47.6091 120.351 48.2287 115.527 49.1098C105.938 50.8659 96.3411 52.5848 86.7632 54.4034C78.2443 56.0223 69.7343 57.7005 61.2403 59.4505C52.0578 61.3405 42.8664 63.1777 33.6371 64.8402C28.0046 65.8555 22.3595 66.6619 16.6738 67.2473C11.0256 67.8262 9.24763 66.3319 6.48892 61.2812C5.72295 59.8802 6.10595 58.7623 7.52581 57.8812C11.2529 55.5616 15.4191 54.2537 19.4981 52.7498C25.0996 50.6855 30.807 48.9698 36.5393 47.3009C43.1964 45.3609 49.9125 43.6827 56.6446 42.048C64.7493 40.0769 72.9071 38.3519 81.0496 36.5616C85.0475 35.6837 89.0736 34.9705 93.0654 34.0737C101.575 32.1651 110.147 30.5648 118.691 28.8334C122.751 28.0116 126.834 27.3016 130.887 26.4609C140.484 24.468 150.143 22.8055 159.776 21.0087C164.435 20.1402 169.13 19.4955 173.76 18.5084C178.773 17.4405 183.874 16.9048 188.877 15.8494C193.52 14.8716 198.218 14.2923 202.886 13.4798C208.883 12.4366 214.892 11.4777 220.886 10.4191C222.312 10.1669 223.695 9.65622 225.096 9.26087C225.08 9.09872 225.065 8.93372 225.052 8.77194L225.055 8.77194Z" fill="rgb(230,102,229)" fill-rule="nonzero" />
</svg>
