<svg viewBox="0 0 154 157.618" xmlns="http://www.w3.org/2000/svg" xmlns:xlink="http://www.w3.org/1999/xlink" width="154.000000" height="157.618408" fill="none" customFrame="#000000">
	<g id="Group">
		<g id="Group">
			<g id="Group">
				<path id="Vector" d="M113.899 155.063C115.023 142.91 123.672 133.767 130.882 124.61C137.779 115.852 144.361 106.937 148.579 96.5371C152.907 85.869 154.686 74.2457 153.762 62.7706C152.901 52.0714 149.535 42.1127 144.804 32.5266C139.217 21.2046 132.099 10.6911 124.377 0.728192C123.55 -0.338613 121.69 -0.141878 120.833 0.728192C106.298 15.4785 82.9992 32.8065 62.1154 18.8909C60.7715 17.9952 58.8471 18.8958 58.4536 20.3803C52.0514 44.5524 23.0731 46.8343 2.53706 45.4128C1.23126 45.3228 -0.0793713 46.6479 0.00375642 47.9461C1.38437 69.5157 4.7538 93.178 17.2936 111.358C29.7517 129.419 48.6937 141.21 70.3346 144.759C83.9101 146.987 99.2021 147.139 109.971 156.912C112.456 159.167 116.153 155.502 113.668 153.216C104.955 145.202 93.6534 142.83 82.2892 141.249C70.7157 139.639 59.632 137.847 49.054 132.587C29.776 123.003 16.8274 105.61 11.0369 85.1236C7.61618 73.0223 5.88574 60.4762 5.06901 47.9461C4.22458 48.7906 3.38015 49.635 2.53571 50.4794C15.8632 51.3862 29.8051 51.2816 42.1509 45.5257C52.1034 40.8858 60.4182 32.4823 63.2584 21.7055C62.0378 22.2022 60.8172 22.6989 59.5966 23.1949C69.4708 29.7578 82.2981 30.0591 93.289 26.281C105.519 22.0768 115.438 13.3276 124.375 4.2729C123.193 4.2729 122.012 4.2729 120.83 4.2729C133.697 20.9005 146.776 40.721 148.655 62.1942C149.654 73.6215 147.992 85.1735 143.613 95.7896C139.293 106.264 132.247 115.13 125.457 124.079C118.292 133.523 110.817 142.814 109.739 155.063C109.508 157.73 113.655 157.705 113.899 155.063Z" fill="rgb(230,102,229)" fill-rule="nonzero" />
			</g>
			<g id="Group">
				<path id="Vector" d="M56.3922 89.2955C67.9456 94.854 79.3105 100.791 90.8327 106.413C92.6546 107.302 94.3567 106.186 94.5832 104.261C95.9312 92.8007 97.5744 81.3603 99.8015 70.0355C100.962 64.1335 102.268 58.2549 103.846 52.4499C104.542 49.8916 105.289 47.3465 106.121 44.8291C106.904 42.4614 108.198 40.0424 108.296 37.5312C108.368 35.6664 105.852 34.6342 104.582 35.9926C101.324 39.4778 100.263 46.1335 99.018 50.6134C97.3167 56.7358 95.9187 62.9413 94.6822 69.1731C92.3837 80.7576 90.4954 92.4786 89.599 104.261C90.8494 103.543 92.099 102.826 93.3494 102.108C81.5425 96.9384 69.597 92.0907 57.8185 86.8557C56.1851 86.1304 54.7366 88.4989 56.3922 89.2955Z" fill="rgb(230,102,229)" fill-rule="nonzero" />
			</g>
		</g>
		<g id="Group">
			<path id="Vector" d="M120.279 19.3836C124.242 24.7917 127.567 30.8033 130.284 36.9305C133.012 43.0819 134.103 49.8665 136.864 55.939C137.197 56.6699 138.289 56.2604 138.301 55.5497C138.416 49.0637 135.237 42.0754 132.576 36.2765C129.615 29.8224 125.787 24.0769 121.413 18.508C120.912 17.8693 119.793 18.7213 120.279 19.3836Z" fill="rgb(230,102,229)" fill-rule="nonzero" />
		</g>
		<g id="Group">
			<path id="Vector" d="M138.598 66.4482C138.758 69.064 138.764 71.6631 138.663 74.2809C138.584 76.3099 138.09 78.3542 138.905 80.2502C139.055 80.598 139.53 80.5017 139.705 80.2502C140.876 78.5586 140.672 76.2788 140.694 74.2809C140.722 71.6659 140.535 69.0494 140.286 66.4482C140.184 65.3842 138.53 65.3516 138.598 66.4482Z" fill="rgb(230,102,229)" fill-rule="nonzero" />
		</g>
	</g>
</svg>
