<svg viewBox="0 0 257 41.0441" xmlns="http://www.w3.org/2000/svg" xmlns:xlink="http://www.w3.org/1999/xlink" width="257.000000" height="41.044128" fill="none" customFrame="#000000">
	<rect id="Harriet Hacks" width="257.000000" height="41.044048" x="0.000000" y="0.000000" />
	<path id="Vector" d="M246.712 40.9894C245.513 40.9894 244.241 40.8077 242.896 40.4443C241.588 40.0809 240.589 39.6267 239.899 39.0816C239.644 38.8636 239.535 38.5366 239.572 38.1005L240.771 30.9601C240.843 30.4877 241.061 30.2515 241.425 30.2515C241.824 30.2515 242.024 30.5059 242.024 31.0146L242.133 33.631C242.206 35.7022 242.697 37.2284 243.605 38.2095C244.55 39.1543 245.694 39.6267 247.039 39.6267C248.202 39.6267 249.201 39.2633 250.037 38.5366C250.873 37.7735 251.29 36.6652 251.29 35.2117C251.29 34.3759 251.163 33.6128 250.909 32.9224C250.655 32.1956 250.255 31.4325 249.71 30.6331C249.165 29.7973 248.42 28.798 247.475 27.6352C246.239 26.0363 245.313 24.6736 244.695 23.5472C244.114 22.3843 243.823 21.1852 243.823 19.9497C243.823 17.6604 244.532 15.8253 245.949 14.4445C247.402 13.0637 249.237 12.3732 251.454 12.3732C252.435 12.3732 253.38 12.5186 254.288 12.8093C255.233 13.1 256.014 13.536 256.632 14.1175C256.959 14.3718 257.068 14.6989 256.959 15.0986L255.433 22.4025C255.324 22.8749 255.106 23.1111 254.779 23.1111C254.452 23.1111 254.252 22.8567 254.179 22.348L254.016 19.7317C253.87 17.5514 253.58 15.9889 253.144 15.0441C252.744 14.0993 251.89 13.6269 250.582 13.6269C249.419 13.6269 248.474 14.0266 247.748 14.826C247.021 15.6255 246.657 16.5884 246.657 17.7149C246.657 18.9141 246.984 20.0224 247.639 21.0398C248.293 22.021 249.183 23.2746 250.309 24.8008C251.799 26.7631 252.798 28.3256 253.307 29.4884C253.852 30.6512 254.125 31.8322 254.125 33.0314C254.125 34.5576 253.78 35.9202 253.089 37.1194C252.435 38.3186 251.545 39.2633 250.418 39.9538C249.292 40.6442 248.056 40.9894 246.712 40.9894Z" fill="rgb(45,13,45)" fill-rule="nonzero" />
	<path id="Vector" d="M234.434 40.9892C232.58 40.9892 231.072 39.4812 229.91 36.4652L226.912 28.5617C226.548 27.6895 226.094 27.2535 225.549 27.2535C225.004 27.2535 224.532 27.7077 224.132 28.6162C223.768 29.4156 223.369 30.5057 222.933 31.8866C222.533 33.2311 222.151 34.7028 221.788 36.3016L220.97 39.8991C220.861 40.2988 220.607 40.4987 220.207 40.4987L218.082 40.4987C217.573 40.4987 217.373 40.2625 217.482 39.7901L225.44 5.61422C225.585 4.99647 225.585 4.56042 225.44 4.30605C225.295 4.01535 224.968 3.85182 224.459 3.81549L222.824 3.65197C222.279 3.57929 222.042 3.34309 222.115 2.94338C222.188 2.61634 222.442 2.41648 222.878 2.3438C224.441 2.08943 225.694 1.79873 226.639 1.47169C227.584 1.14465 228.311 0.763097 228.819 0.327041C229.11 0.109013 229.364 0 229.582 0C230.055 0 230.237 0.272535 230.128 0.817604L225.058 22.4024C225.022 22.6567 225.077 22.8021 225.222 22.8384C225.367 22.8748 225.494 22.7839 225.604 22.5659L227.402 19.35C230.019 14.6987 232.962 12.3731 236.232 12.3731C237.468 12.3731 238.449 12.7001 239.176 13.3542C239.902 14.0083 240.266 14.8986 240.266 16.025C240.266 17.8056 239.394 19.5862 237.65 21.3667C235.942 23.1473 233.689 24.6008 230.891 25.7273C230.019 26.0543 229.764 26.6357 230.128 27.4715L233.289 35.5385C233.652 36.447 234.016 37.1011 234.379 37.5008C234.742 37.8642 235.197 38.0459 235.742 38.0459C236.578 38.0459 237.213 37.5371 237.65 36.5197C238.086 35.4659 238.467 33.649 238.794 31.069C238.867 30.5966 239.085 30.3604 239.448 30.3604C239.848 30.3604 240.03 30.7238 239.993 31.4505C239.812 34.5029 239.23 36.8649 238.249 38.5364C237.304 40.1716 236.032 40.9892 234.434 40.9892ZM226.094 24.8007C225.949 25.1277 225.931 25.3821 226.04 25.5638C226.185 25.7091 226.421 25.7455 226.748 25.6728C229.764 24.9097 232.199 23.656 234.052 21.9118C235.905 20.1676 236.832 18.2417 236.832 16.1341C236.832 14.7532 236.305 14.0628 235.251 14.0628C234.016 14.0628 232.58 15.0258 230.945 16.9517C229.31 18.8412 227.693 21.4576 226.094 24.8007Z" fill="rgb(45,13,45)" fill-rule="nonzero" />
	<path id="Vector" d="M206.821 40.9894C204.822 40.9894 203.169 40.1718 201.861 38.5366C200.553 36.865 199.899 34.7393 199.899 32.1593C199.899 29.7246 200.28 27.3445 201.043 25.0189C201.843 22.6569 202.897 20.5311 204.205 18.6415C205.549 16.7156 207.021 15.1894 208.62 14.0629C210.255 12.9365 211.89 12.3732 213.525 12.3732C215.27 12.3732 216.741 12.8456 217.94 13.7904C218.122 13.9358 218.231 14.0629 218.267 14.172C218.304 14.2446 218.286 14.4263 218.213 14.717L216.741 21.8574C216.632 22.3662 216.396 22.6205 216.033 22.6205C215.633 22.6205 215.397 22.348 215.324 21.8029L215.052 17.9329C214.943 16.2614 214.688 15.1713 214.288 14.6625C213.925 14.1538 213.38 13.8994 212.653 13.8994C211.636 13.8994 210.6 14.4082 209.546 15.4256C208.493 16.4067 207.511 17.7513 206.603 19.4591C205.731 21.1307 205.022 23.0021 204.477 25.0734C203.969 27.1083 203.714 29.1796 203.714 31.2872C203.714 35.8657 205.204 38.155 208.184 38.155C209.601 38.155 210.873 37.5009 211.999 36.1928C213.162 34.8846 214.234 32.8497 215.215 30.088C215.324 29.7246 215.578 29.5429 215.978 29.5429C216.196 29.5429 216.323 29.6338 216.36 29.8155C216.396 29.9608 216.36 30.2697 216.251 30.7421C215.887 32.7407 215.233 34.5031 214.288 36.0293C213.344 37.5555 212.217 38.7728 210.909 39.6812C209.637 40.5533 208.275 40.9894 206.821 40.9894Z" fill="rgb(45,13,45)" fill-rule="nonzero" />
	<path id="Vector" d="M179.206 40.9894C177.898 40.9894 176.88 40.4262 176.154 39.2997C175.427 38.1732 175.063 36.5198 175.063 34.3395C175.063 32.2683 175.354 30.197 175.936 28.1257C176.517 26.0181 177.316 24.0196 178.334 22.13C179.351 20.2404 180.496 18.5689 181.768 17.1153C183.076 15.6618 184.439 14.5172 185.856 13.6814C187.309 12.8093 188.745 12.3732 190.162 12.3732C190.852 12.3732 191.506 12.5186 192.124 12.8093C192.742 13.0637 193.251 13.4815 193.65 14.0629C193.868 14.39 194.086 14.5535 194.304 14.5535C194.522 14.5535 194.74 14.39 194.958 14.0629C195.358 13.4815 195.685 13.1182 195.94 12.9728C196.194 12.7911 196.43 12.7003 196.648 12.7003C197.121 12.7003 197.302 12.9546 197.193 13.4634L192.342 34.3395C191.797 36.7015 192.16 37.8825 193.432 37.8825C194.268 37.8825 195.013 37.3193 195.667 36.1928C196.357 35.0663 197.048 33.3221 197.738 30.9601C197.847 30.5604 198.083 30.3605 198.447 30.3605C198.701 30.3605 198.865 30.4695 198.937 30.6876C199.01 30.9056 199.01 31.16 198.937 31.4507C198.247 34.8664 197.32 37.3193 196.158 38.8091C194.995 40.2626 193.596 40.9894 191.961 40.9894C190.543 40.9894 189.526 40.3898 188.908 39.1907C188.327 37.9915 188.272 36.3563 188.745 34.285L189.453 31.2872C189.526 31.0328 189.471 30.8874 189.29 30.8511C189.144 30.8148 189.017 30.9056 188.908 31.1236C186.91 34.7938 185.129 37.3556 183.567 38.8091C182.04 40.2626 180.587 40.9894 179.206 40.9894ZM180.569 38.2095C181.441 38.2095 182.404 37.6826 183.458 36.6288C184.511 35.575 185.547 34.2124 186.564 32.5408C187.618 30.8693 188.581 29.0705 189.453 27.1446C190.325 25.2187 191.016 23.3655 191.525 21.5849C192.07 19.8043 192.342 18.2963 192.342 17.0608C192.342 14.8442 191.561 13.7359 189.998 13.7359C189.054 13.7359 188.054 14.172 187 15.0441C185.947 15.8798 184.929 17.0245 183.948 18.478C183.003 19.9315 182.131 21.5849 181.332 23.4381C180.569 25.255 179.951 27.1628 179.479 29.1614C179.006 31.1236 178.77 33.0495 178.77 34.9391C178.77 36.211 178.915 37.0831 179.206 37.5555C179.533 37.9915 179.987 38.2095 180.569 38.2095Z" fill="rgb(45,13,45)" fill-rule="nonzero" />
	<path id="Vector" d="M145.502 40.4986C144.994 40.4986 144.739 40.3169 144.739 39.9535C144.739 39.5538 145.103 39.2994 145.829 39.1904L146.92 39.0269C147.719 38.9179 148.264 38.7362 148.555 38.4818C148.882 38.1911 149.118 37.6642 149.263 36.9011L156.676 4.851C156.858 4.0879 156.858 3.57917 156.676 3.3248C156.495 3.07044 156.04 2.87058 155.314 2.72523L154.223 2.5072C153.751 2.39819 153.515 2.19833 153.515 1.90762C153.515 1.47157 153.842 1.25354 154.496 1.25354L164.307 1.25354C164.816 1.25354 165.07 1.4534 165.07 1.85311C165.07 2.25283 164.743 2.48903 164.089 2.56171L162.781 2.72523C161.982 2.83424 161.436 3.0341 161.146 3.3248C160.855 3.61551 160.619 4.14241 160.437 4.9055L157.276 18.5868C157.167 19.0955 157.367 19.3499 157.875 19.3499L168.668 19.3499C169.176 19.3499 169.485 19.0955 169.594 18.5868L172.756 4.9055C172.937 4.14241 172.937 3.61551 172.756 3.3248C172.574 3.0341 172.12 2.83424 171.393 2.72523L170.194 2.56171C169.685 2.52537 169.431 2.30734 169.431 1.90762C169.431 1.47157 169.776 1.25354 170.466 1.25354L180.278 1.25354C180.786 1.25354 181.041 1.43523 181.041 1.79861C181.041 2.19833 180.677 2.45269 179.951 2.56171L178.861 2.72523C178.061 2.83424 177.516 3.0341 177.225 3.3248C176.935 3.57917 176.698 4.0879 176.517 4.851L169.104 36.9011C168.958 37.6642 168.958 38.1729 169.104 38.4273C169.285 38.6817 169.74 38.8815 170.466 39.0269L171.557 39.2449C172.029 39.3539 172.265 39.5538 172.265 39.8445C172.265 40.2805 171.938 40.4986 171.284 40.4986L161.473 40.4986C160.964 40.4986 160.71 40.2987 160.71 39.899C160.71 39.4993 161.037 39.2631 161.691 39.1904L162.999 39.0269C163.798 38.9179 164.344 38.718 164.634 38.4273C164.961 38.1366 165.197 37.6097 165.343 36.8466L168.831 21.7482C168.94 21.2394 168.759 20.9851 168.286 20.9851L157.494 20.9851C156.949 20.9851 156.622 21.2394 156.513 21.7482L153.024 36.8466C152.879 37.6097 152.879 38.1366 153.024 38.4273C153.206 38.718 153.66 38.9179 154.387 39.0269L155.586 39.1904C156.095 39.2267 156.349 39.4448 156.349 39.8445C156.349 40.2805 156.004 40.4986 155.314 40.4986L145.502 40.4986Z" fill="rgb(45,13,45)" fill-rule="nonzero" />
	<path id="Vector" d="M130.328 40.9889C129.093 40.9889 128.13 40.4984 127.439 39.5173C126.749 38.5361 126.64 36.9554 127.112 34.7752L131.636 15.0436C131.745 14.4986 131.527 14.226 130.982 14.226L128.911 14.226C128.402 14.226 128.148 13.9898 128.148 13.5174C128.148 13.2631 128.239 13.0632 128.42 12.9178C128.602 12.7725 128.82 12.6998 129.075 12.6998L131.037 12.6998C131.873 12.6998 132.363 12.3183 132.508 11.5552L133.817 5.72293C133.926 5.32321 134.18 5.12335 134.58 5.12335L136.815 5.12335C137.323 5.12335 137.523 5.35955 137.414 5.83194L136.051 11.8822C135.942 12.4273 136.16 12.6998 136.706 12.6998L139.812 12.6998C140.43 12.6998 140.739 12.936 140.739 13.4084C140.739 13.9535 140.357 14.226 139.594 14.226L136.651 14.226C135.852 14.226 135.361 14.6076 135.179 15.3707L130.601 35.3202C130.419 36.1197 130.437 36.7556 130.655 37.228C130.91 37.664 131.328 37.882 131.909 37.882C132.745 37.882 133.508 37.4097 134.198 36.4649C134.925 35.5201 135.688 33.7213 136.487 31.0687C136.633 30.5963 136.869 30.3601 137.196 30.3601C137.45 30.3601 137.614 30.4691 137.687 30.6871C137.759 30.9052 137.705 31.3049 137.523 31.8863C136.833 34.3573 136.07 36.2468 135.234 37.555C134.434 38.8632 133.617 39.7716 132.781 40.2804C131.945 40.7527 131.128 40.9889 130.328 40.9889Z" fill="rgb(45,13,45)" fill-rule="nonzero" />
	<path id="Vector" d="M113.941 40.9894C112.015 40.9894 110.471 40.2445 109.308 38.7546C108.145 37.2284 107.563 35.0845 107.563 32.3228C107.563 29.9245 107.981 27.5443 108.817 25.1824C109.689 22.8204 110.816 20.6765 112.197 18.7505C113.577 16.8246 115.085 15.2803 116.721 14.1175C118.392 12.9546 120.009 12.3732 121.572 12.3732C123.28 12.3732 124.497 12.7911 125.224 13.6269C125.987 14.4263 126.368 15.5165 126.368 16.8973C126.368 18.5325 125.787 20.1677 124.624 21.8029C123.498 23.4018 121.899 24.8372 119.827 26.109C117.793 27.3808 115.394 28.3256 112.633 28.9434C111.833 29.125 111.415 29.5793 111.379 30.306C111.343 30.5604 111.324 30.8329 111.324 31.1236C111.324 31.378 111.324 31.6324 111.324 31.8867C111.324 33.958 111.67 35.5205 112.36 36.5743C113.087 37.6281 114.068 38.155 115.303 38.155C116.684 38.155 118.011 37.5191 119.282 36.2473C120.591 34.9755 121.681 33.1767 122.553 30.8511C122.662 30.5241 122.88 30.3605 123.207 30.3605C123.425 30.3605 123.552 30.4514 123.588 30.6331C123.661 30.8148 123.661 31.0328 123.588 31.2872C122.426 34.4849 121.008 36.9014 119.337 38.5366C117.702 40.1718 115.903 40.9894 113.941 40.9894ZM111.924 26.8721C111.851 27.1265 111.888 27.3445 112.033 27.5262C112.215 27.6715 112.433 27.7079 112.687 27.6352C114.94 27.0174 116.83 26.0908 118.356 24.8553C119.882 23.5835 121.027 22.1663 121.79 20.6038C122.589 19.0413 122.989 17.5151 122.989 16.0252C122.989 14.499 122.389 13.7359 121.19 13.7359C120.136 13.7359 118.992 14.3537 117.756 15.5891C116.521 16.8246 115.376 18.4417 114.322 20.4403C113.269 22.4389 112.469 24.5828 111.924 26.8721Z" fill="rgb(45,13,45)" fill-rule="nonzero" />
	<path id="Vector" d="M103.416 7.52237C102.726 7.52237 102.144 7.28617 101.672 6.81378C101.236 6.30504 101.018 5.70547 101.018 5.01505C101.018 4.03392 101.308 3.25265 101.89 2.67125C102.508 2.08984 103.198 1.79913 103.961 1.79913C104.688 1.79913 105.287 2.03533 105.76 2.50772C106.268 2.94378 106.523 3.52519 106.523 4.25195C106.523 5.26941 106.214 6.06885 105.596 6.65025C104.978 7.23166 104.252 7.52237 103.416 7.52237ZM98.9464 41.0442C97.7473 41.0442 96.8933 40.6081 96.3846 39.736C95.8759 38.8275 95.8577 37.3559 96.3301 35.3209L100.364 18.0422C100.545 17.2428 100.563 16.625 100.418 16.189C100.309 15.7166 99.982 15.4804 99.437 15.4804C98.7829 15.4804 98.0561 15.9709 97.2567 16.9521C96.4936 17.8969 95.6215 19.7138 94.6404 22.4028C94.495 22.8752 94.2407 23.1114 93.8773 23.1114C93.3322 23.1114 93.1869 22.7843 93.4412 22.1302C94.2407 19.6229 95.0764 17.6607 95.9485 16.2435C96.857 14.8263 97.7654 13.827 98.6739 13.2456C99.5823 12.6642 100.418 12.3735 101.181 12.3735C102.453 12.3735 103.343 12.8277 103.852 13.7362C104.361 14.6083 104.379 16.0618 103.907 18.0967L99.873 35.3754C99.6913 36.1749 99.655 36.8108 99.764 37.2832C99.9094 37.7192 100.255 37.9373 100.8 37.9373C101.454 37.9373 102.162 37.4649 102.925 36.5201C103.725 35.539 104.615 33.7039 105.596 31.0149C105.742 30.5425 105.996 30.3063 106.359 30.3063C106.904 30.3063 107.05 30.6333 106.795 31.2874C106.032 33.7584 105.178 35.7206 104.234 37.1742C103.325 38.5913 102.417 39.5906 101.508 40.172C100.6 40.7535 99.7458 41.0442 98.9464 41.0442Z" fill="rgb(45,13,45)" fill-rule="nonzero" />
	<path id="Vector" d="M76.808 40.4988C76.2992 40.4988 76.0994 40.2626 76.2084 39.7902L81.3865 18.042C81.5682 17.2425 81.5864 16.6248 81.441 16.1887C81.332 15.7163 81.005 15.4801 80.4599 15.4801C79.8058 15.4801 79.0791 15.9707 78.2796 16.9518C77.5166 17.8966 76.6444 19.7135 75.6633 22.4025C75.518 22.8749 75.2636 23.1111 74.9002 23.1111C74.3552 23.1111 74.2098 22.7841 74.4642 22.13C75.2636 19.6227 76.0994 17.6604 76.9715 16.2432C77.8799 14.826 78.7884 13.8268 79.6968 13.2453C80.6053 12.6639 81.441 12.3732 82.2041 12.3732C83.4033 12.3732 84.2572 12.8275 84.766 13.7359C85.2747 14.608 85.2929 16.0615 84.8205 18.0965L84.2209 20.6583C84.1846 20.9127 84.2391 21.058 84.3844 21.0943C84.5298 21.1307 84.6569 21.0398 84.766 20.8218C86.1468 17.6604 87.4005 15.462 88.5269 14.2265C89.6534 12.991 90.9434 12.3732 92.3969 12.3732C93.378 12.3732 94.1048 12.6458 94.5772 13.1908C95.0859 13.6996 95.3403 14.4082 95.3403 15.3166C95.3403 16.2251 95.1223 16.9518 94.6862 17.4969C94.2501 18.042 93.6869 18.3145 92.9965 18.3145C92.4151 18.3145 91.9972 18.1691 91.7428 17.8784C91.4885 17.5877 91.2886 17.2607 91.1432 16.8973C91.0342 16.4976 90.9071 16.1524 90.7617 15.8617C90.6164 15.571 90.3802 15.4256 90.0531 15.4256C89.508 15.4256 88.7995 16.116 87.9274 17.4969C87.0552 18.8777 86.1105 20.7491 85.093 23.1111C84.1119 25.4367 83.1489 28.0531 82.2041 30.9601C81.2957 33.8671 80.4963 36.8469 79.8058 39.8993C79.6968 40.299 79.4425 40.4988 79.0427 40.4988L76.808 40.4988Z" fill="rgb(45,13,45)" fill-rule="nonzero" />
	<path id="Vector" d="M57.8307 40.4988C57.3219 40.4988 57.1221 40.2626 57.2311 39.7902L62.4092 18.042C62.5909 17.2425 62.6091 16.6248 62.4638 16.1887C62.3547 15.7163 62.0277 15.4801 61.4826 15.4801C60.8285 15.4801 60.1018 15.9707 59.3024 16.9518C58.5393 17.8966 57.6672 19.7135 56.686 22.4025C56.5407 22.8749 56.2863 23.1111 55.9229 23.1111C55.3779 23.1111 55.2325 22.7841 55.4869 22.13C56.2863 19.6227 57.1221 17.6604 57.9942 16.2432C58.9026 14.826 59.8111 13.8268 60.7195 13.2453C61.628 12.6639 62.4637 12.3732 63.2268 12.3732C64.426 12.3732 65.2799 12.8275 65.7887 13.7359C66.2974 14.608 66.3156 16.0615 65.8432 18.0965L65.2436 20.6583C65.2073 20.9127 65.2618 21.058 65.4071 21.0943C65.5525 21.1307 65.6796 21.0398 65.7887 20.8218C67.1695 17.6604 68.4232 15.462 69.5496 14.2265C70.6761 12.991 71.9661 12.3732 73.4196 12.3732C74.4007 12.3732 75.1275 12.6458 75.5999 13.1908C76.1086 13.6996 76.363 14.4082 76.363 15.3166C76.363 16.2251 76.145 16.9518 75.7089 17.4969C75.2728 18.042 74.7096 18.3145 74.0192 18.3145C73.4378 18.3145 73.0199 18.1691 72.7655 17.8784C72.5112 17.5877 72.3113 17.2607 72.166 16.8973C72.0569 16.4976 71.9298 16.1524 71.7844 15.8617C71.6391 15.571 71.4029 15.4256 71.0758 15.4256C70.5308 15.4256 69.8222 16.116 68.9501 17.4969C68.0779 18.8777 67.1332 20.7491 66.1157 23.1111C65.1346 25.4367 64.1716 28.0531 63.2268 30.9601C62.3184 33.8671 61.519 36.8469 60.8285 39.8993C60.7195 40.299 60.4652 40.4988 60.0654 40.4988L57.8307 40.4988Z" fill="rgb(45,13,45)" fill-rule="nonzero" />
	<path id="Vector" d="M34.4672 40.9894C33.1591 40.9894 32.1416 40.4262 31.4148 39.2997C30.6881 38.1732 30.3247 36.5198 30.3247 34.3395C30.3247 32.2683 30.6154 30.197 31.1968 28.1257C31.7782 26.0181 32.5777 24.0196 33.5951 22.13C34.6126 20.2404 35.7572 18.5689 37.029 17.1153C38.3372 15.6618 39.6999 14.5172 41.1171 13.6814C42.5706 12.8093 44.0059 12.3732 45.4231 12.3732C46.1135 12.3732 46.7676 12.5186 47.3853 12.8093C48.0031 13.0637 48.5118 13.4815 48.9115 14.0629C49.1295 14.39 49.3476 14.5535 49.5656 14.5535C49.7836 14.5535 50.0017 14.39 50.2197 14.0629C50.6194 13.4815 50.9464 13.1182 51.2008 12.9728C51.4552 12.7911 51.6914 12.7003 51.9094 12.7003C52.3818 12.7003 52.5635 12.9546 52.4545 13.4634L47.6034 34.3395C47.0583 36.7015 47.4217 37.8825 48.6935 37.8825C49.5293 37.8825 50.2742 37.3193 50.9283 36.1928C51.6187 35.0663 52.3091 33.3221 52.9995 30.9601C53.1085 30.5604 53.3447 30.3605 53.7081 30.3605C53.9625 30.3605 54.126 30.4695 54.1987 30.6876C54.2714 30.9056 54.2714 31.16 54.1987 31.4507C53.5083 34.8664 52.5816 37.3193 51.4188 38.8091C50.256 40.2626 48.857 40.9894 47.2218 40.9894C45.8046 40.9894 44.7872 40.3898 44.1694 39.1907C43.588 37.9915 43.5335 36.3563 44.0059 34.285L44.7145 31.2872C44.7872 31.0328 44.7327 30.8874 44.551 30.8511C44.4056 30.8148 44.2784 30.9056 44.1694 31.1236C42.1708 34.7938 40.3903 37.3556 38.8278 38.8091C37.3016 40.2626 35.8481 40.9894 34.4672 40.9894ZM35.8299 38.2095C36.702 38.2095 37.665 37.6826 38.7188 36.6288C39.7725 35.575 40.8082 34.2124 41.8256 32.5408C42.8794 30.8693 43.8424 29.0705 44.7145 27.1446C45.5866 25.2187 46.277 23.3655 46.7858 21.5849C47.3308 19.8043 47.6034 18.2963 47.6034 17.0608C47.6034 14.8442 46.8221 13.7359 45.2596 13.7359C44.3148 13.7359 43.3155 14.172 42.2617 15.0441C41.2079 15.8798 40.1904 17.0245 39.2093 18.478C38.2645 19.9315 37.3924 21.5849 36.593 23.4381C35.8299 25.255 35.2121 27.1628 34.7398 29.1614C34.2674 31.1236 34.0312 33.0495 34.0312 34.9391C34.0312 36.211 34.1765 37.0831 34.4672 37.5555C34.7943 37.9915 35.2485 38.2095 35.8299 38.2095Z" fill="rgb(45,13,45)" fill-rule="nonzero" />
	<path id="Vector" d="M0.763095 40.4986C0.254365 40.4986 0 40.3169 0 39.9535C0 39.5538 0.363379 39.2994 1.09014 39.1904L2.18027 39.0269C2.9797 38.9179 3.52477 38.7362 3.81548 38.4818C4.14252 38.1911 4.37871 37.6642 4.52406 36.9011L11.937 4.851C12.1187 4.0879 12.1187 3.57917 11.937 3.3248C11.7553 3.07044 11.3011 2.87058 10.5743 2.72523L9.48418 2.5072C9.01179 2.39819 8.77559 2.19833 8.77559 1.90762C8.77559 1.47157 9.10263 1.25354 9.75671 1.25354L19.5679 1.25354C20.0767 1.25354 20.331 1.4534 20.331 1.85311C20.331 2.25283 20.004 2.48903 19.3499 2.56171L18.0417 2.72523C17.2423 2.83424 16.6972 3.0341 16.4065 3.3248C16.1158 3.61551 15.8796 4.14241 15.698 4.9055L12.5366 18.5868C12.4275 19.0955 12.6274 19.3499 13.1361 19.3499L23.9285 19.3499C24.4372 19.3499 24.7461 19.0955 24.8551 18.5868L28.0165 4.9055C28.1982 4.14241 28.1982 3.61551 28.0165 3.3248C27.8348 3.0341 27.3806 2.83424 26.6538 2.72523L25.4547 2.56171C24.9459 2.52537 24.6916 2.30734 24.6916 1.90762C24.6916 1.47157 25.0368 1.25354 25.7272 1.25354L35.5384 1.25354C36.0472 1.25354 36.3015 1.43523 36.3015 1.79861C36.3015 2.19833 35.9381 2.45269 35.2114 2.56171L34.1213 2.72523C33.3218 2.83424 32.7767 3.0341 32.486 3.3248C32.1953 3.57917 31.9591 4.0879 31.7775 4.851L24.3645 36.9011C24.2192 37.6642 24.2192 38.1729 24.3645 38.4273C24.5462 38.6817 25.0004 38.8815 25.7272 39.0269L26.8173 39.2449C27.2897 39.3539 27.5259 39.5538 27.5259 39.8445C27.5259 40.2805 27.1989 40.4986 26.5448 40.4986L16.7336 40.4986C16.2249 40.4986 15.9705 40.2987 15.9705 39.899C15.9705 39.4993 16.2975 39.2631 16.9516 39.1904L18.2598 39.0269C19.0592 38.9179 19.6043 38.718 19.895 38.4273C20.222 38.1366 20.4582 37.6097 20.6036 36.8466L24.092 21.7482C24.201 21.2394 24.0193 20.9851 23.5469 20.9851L12.7546 20.9851C12.2095 20.9851 11.8825 21.2394 11.7735 21.7482L8.28503 36.8466C8.13968 37.6097 8.13968 38.1366 8.28503 38.4273C8.46672 38.718 8.92094 38.9179 9.6477 39.0269L10.8469 39.1904C11.3556 39.2267 11.6099 39.4448 11.6099 39.8445C11.6099 40.2805 11.2647 40.4986 10.5743 40.4986L0.763095 40.4986Z" fill="rgb(45,13,45)" fill-rule="nonzero" />
</svg>
